<mxfile host="Electron" modified="2023-06-15T01:07:05.690Z" agent="Mozilla/5.0 (Windows NT 10.0; Win64; x64) AppleWebKit/537.36 (KHTML, like Gecko) draw.io/21.4.0 Chrome/112.0.5615.204 Electron/24.5.1 Safari/537.36" etag="u0f8y1_p_ti7paxYPxOv" version="21.4.0" type="device">
  <diagram name="Страница 1" id="x-cEHAywIKYn9VB0mxN0">
    <mxGraphModel dx="1596" dy="868" grid="1" gridSize="10" guides="1" tooltips="1" connect="1" arrows="1" fold="1" page="1" pageScale="1" pageWidth="827" pageHeight="1169" math="0" shadow="0">
      <root>
        <mxCell id="0" />
        <mxCell id="1" parent="0" />
        <mxCell id="nB_qwQjfUgqTb6RSLKuS-5" value="" style="edgeStyle=orthogonalEdgeStyle;rounded=0;orthogonalLoop=1;jettySize=auto;html=1;" edge="1" parent="1" source="nB_qwQjfUgqTb6RSLKuS-1">
          <mxGeometry relative="1" as="geometry">
            <mxPoint x="400" y="260" as="targetPoint" />
          </mxGeometry>
        </mxCell>
        <mxCell id="nB_qwQjfUgqTb6RSLKuS-1" value="Start" style="rounded=1;whiteSpace=wrap;html=1;" vertex="1" parent="1">
          <mxGeometry x="340" y="160" width="120" height="60" as="geometry" />
        </mxCell>
        <mxCell id="nB_qwQjfUgqTb6RSLKuS-7" value="" style="edgeStyle=orthogonalEdgeStyle;rounded=0;orthogonalLoop=1;jettySize=auto;html=1;" edge="1" parent="1" source="nB_qwQjfUgqTb6RSLKuS-3" target="nB_qwQjfUgqTb6RSLKuS-6">
          <mxGeometry relative="1" as="geometry" />
        </mxCell>
        <mxCell id="nB_qwQjfUgqTb6RSLKuS-3" value="result" style="shape=document;whiteSpace=wrap;html=1;boundedLbl=1;" vertex="1" parent="1">
          <mxGeometry x="320" y="460" width="160" height="80" as="geometry" />
        </mxCell>
        <mxCell id="nB_qwQjfUgqTb6RSLKuS-6" value="End" style="rounded=1;whiteSpace=wrap;html=1;" vertex="1" parent="1">
          <mxGeometry x="340" y="580" width="120" height="60" as="geometry" />
        </mxCell>
        <mxCell id="nB_qwQjfUgqTb6RSLKuS-8" value="&lt;h1&gt;&lt;font style=&quot;font-size: 12px;&quot;&gt;Задача 3. Составить блок-схему нахождения среднего арифметического из 4-х чисел.&lt;/font&gt;&lt;br&gt;&lt;/h1&gt;" style="text;html=1;strokeColor=none;fillColor=none;spacing=5;spacingTop=-20;whiteSpace=wrap;overflow=hidden;rounded=0;" vertex="1" parent="1">
          <mxGeometry x="230" y="50" width="340" height="80" as="geometry" />
        </mxCell>
        <mxCell id="nB_qwQjfUgqTb6RSLKuS-16" value="" style="edgeStyle=orthogonalEdgeStyle;rounded=0;orthogonalLoop=1;jettySize=auto;html=1;" edge="1" parent="1" source="nB_qwQjfUgqTb6RSLKuS-9" target="nB_qwQjfUgqTb6RSLKuS-15">
          <mxGeometry relative="1" as="geometry" />
        </mxCell>
        <mxCell id="nB_qwQjfUgqTb6RSLKuS-9" value="Дано: num1, num2, num3, num4" style="shape=parallelogram;perimeter=parallelogramPerimeter;whiteSpace=wrap;html=1;fixedSize=1;" vertex="1" parent="1">
          <mxGeometry x="270" y="260" width="260" height="60" as="geometry" />
        </mxCell>
        <mxCell id="nB_qwQjfUgqTb6RSLKuS-17" value="" style="edgeStyle=orthogonalEdgeStyle;rounded=0;orthogonalLoop=1;jettySize=auto;html=1;" edge="1" parent="1" source="nB_qwQjfUgqTb6RSLKuS-15" target="nB_qwQjfUgqTb6RSLKuS-3">
          <mxGeometry relative="1" as="geometry" />
        </mxCell>
        <mxCell id="nB_qwQjfUgqTb6RSLKuS-15" value="result = (num1 + num2 + num3 + num4) / 4&amp;nbsp;" style="rounded=0;whiteSpace=wrap;html=1;" vertex="1" parent="1">
          <mxGeometry x="280" y="360" width="240" height="60" as="geometry" />
        </mxCell>
      </root>
    </mxGraphModel>
  </diagram>
</mxfile>
